<?xml version="1.0" encoding="utf-8"?>
<!-- Generator: Adobe Illustrator 16.0.4, SVG Export Plug-In . SVG Version: 6.00 Build 0)  -->
<!DOCTYPE svg PUBLIC "-//W3C//DTD SVG 1.1//EN" "http://www.w3.org/Graphics/SVG/1.1/DTD/svg11.dtd">
<svg version="1.1" id="Layer_1" xmlns="http://www.w3.org/2000/svg" xmlns:xlink="http://www.w3.org/1999/xlink" x="0px" y="0px"
	 width="150.956px" height="59.782px" viewBox="0 0 150.956 59.782" enable-background="new 0 0 150.956 59.782"
	 xml:space="preserve">
<g>
	<g>
		<g>
			<g>
				<path fill="#FFFFFF" d="M7.024,51.269c0.52,0,0.964-0.088,1.342-0.26c0.375-0.176,0.765-0.455,1.172-0.838l0.971,0.994
					c-0.945,1.047-2.09,1.57-3.44,1.57c-1.345,0-2.465-0.436-3.353-1.301c-0.891-0.869-1.332-1.965-1.332-3.293
					c0-1.326,0.449-2.43,1.355-3.314c0.908-0.885,2.053-1.324,3.435-1.324c1.381,0,2.538,0.506,3.462,1.529l-0.957,1.041
					c-0.424-0.404-0.829-0.689-1.206-0.852c-0.378-0.16-0.823-0.24-1.333-0.24c-0.901,0-1.658,0.291-2.268,0.873
					c-0.616,0.582-0.923,1.326-0.923,2.232s0.307,1.66,0.913,2.27C5.474,50.966,6.192,51.269,7.024,51.269z"/>
			</g>
			<g>
				<path fill="#FFFFFF" d="M12.982,43.716h1.505v8.918h-1.505V43.716z"/>
			</g>
			<g>
				<path fill="#FFFFFF" d="M21.666,52.634h-1.68l-3.585-8.918h1.685l2.741,6.66l2.741-6.66h1.685L21.666,52.634z"/>
			</g>
			<g>
				<path fill="#FFFFFF" d="M27.163,43.716h1.508v8.918h-1.508V43.716z"/>
			</g>
			<g>
				<path fill="#FFFFFF" d="M35.852,51.269c0.52,0,0.967-0.088,1.343-0.26c0.373-0.176,0.764-0.455,1.17-0.838l0.974,0.994
					c-0.946,1.047-2.093,1.57-3.438,1.57c-1.351,0-2.468-0.436-3.354-1.301c-0.892-0.869-1.336-1.965-1.336-3.293
					c0-1.326,0.453-2.43,1.358-3.314c0.903-0.885,2.048-1.324,3.433-1.324c1.381,0,2.535,0.506,3.465,1.529l-0.959,1.041
					c-0.428-0.404-0.828-0.689-1.208-0.852c-0.376-0.16-0.822-0.24-1.332-0.24c-0.901,0-1.655,0.291-2.269,0.873
					s-0.921,1.326-0.921,2.232s0.307,1.66,0.913,2.27C34.302,50.966,35.021,51.269,35.852,51.269z"/>
			</g>
			<g>
				<path fill="#FFFFFF" d="M47.83,44.493c0.622,0.52,0.93,1.322,0.93,2.398c0,1.078-0.313,1.873-0.95,2.373
					c-0.635,0.504-1.604,0.756-2.914,0.756h-1.58v2.613h-1.507v-8.918h3.062C46.222,43.716,47.21,43.976,47.83,44.493z
					 M46.765,48.175c0.303-0.32,0.452-0.787,0.452-1.404c0-0.615-0.188-1.049-0.575-1.305c-0.382-0.256-0.982-0.385-1.795-0.385
					h-1.531v3.574h1.746C45.896,48.655,46.466,48.493,46.765,48.175z"/>
			</g>
			<g>
				<path fill="#FFFFFF" d="M51.948,50.604l-0.89,2.029h-1.61l3.932-8.918h1.607l3.925,8.918h-1.606l-0.893-2.029H51.948z
					 M55.803,49.216l-1.62-3.676l-1.621,3.676H55.803z"/>
			</g>
			<g>
				<path fill="#FFFFFF" d="M63.454,45.093v7.541H61.95v-7.541h-2.704v-1.377h6.913v1.377H63.454z"/>
			</g>
			<g>
				<path fill="#FFFFFF" d="M71.8,45.093v7.541h-1.509v-7.541H67.59v-1.377h6.912v1.377H71.8z"/>
			</g>
			<g>
				<path fill="#FFFFFF" d="M83.033,43.716v1.416h-4.756v2.361h4.273v1.336h-4.273v2.389h4.91v1.416h-6.414v-8.918H83.033z"/>
			</g>
			<g>
				<path fill="#FFFFFF" d="M92.869,46.61c0,1.473-0.643,2.398-1.926,2.781l2.334,3.242h-1.912l-2.131-2.996h-1.977v2.996h-1.506
					v-8.918h3.316c1.359,0,2.336,0.23,2.922,0.689C92.574,44.864,92.869,45.603,92.869,46.61z M90.867,47.876
					c0.305-0.262,0.461-0.688,0.461-1.271c0-0.58-0.16-0.982-0.477-1.197c-0.311-0.217-0.873-0.326-1.68-0.326h-1.914v3.188h1.875
					C89.982,48.269,90.559,48.14,90.867,47.876z"/>
			</g>
			<g>
				<path fill="#FFFFFF" d="M102.357,43.716h1.508v8.918h-1.635l-5.051-6.508v6.508h-1.506v-8.918h1.506l5.178,6.66V43.716z"/>
			</g>
			<g>
				<path fill="#FFFFFF" d="M109.674,44.89c-0.438,0-0.797,0.092-1.074,0.27c-0.285,0.178-0.424,0.449-0.424,0.809
					c0,0.361,0.139,0.637,0.424,0.828c0.277,0.193,0.875,0.398,1.789,0.619c0.916,0.221,1.605,0.533,2.066,0.932
					c0.463,0.398,0.693,0.986,0.693,1.766s-0.291,1.41-0.879,1.893c-0.586,0.486-1.357,0.73-2.307,0.73
					c-1.396,0-2.637-0.479-3.713-1.443l0.941-1.135c0.906,0.783,1.838,1.174,2.807,1.174c0.488,0,0.871-0.104,1.154-0.314
					c0.287-0.207,0.432-0.482,0.432-0.826c0-0.346-0.139-0.613-0.404-0.803c-0.268-0.193-0.729-0.367-1.383-0.523
					c-0.654-0.158-1.154-0.303-1.494-0.434c-0.34-0.133-0.645-0.303-0.904-0.518c-0.529-0.402-0.793-1.012-0.793-1.84
					c0-0.82,0.303-1.457,0.9-1.902c0.598-0.449,1.344-0.668,2.225-0.668c0.572,0,1.137,0.09,1.697,0.277
					c0.562,0.189,1.047,0.453,1.453,0.791l-0.801,1.137c-0.264-0.238-0.623-0.436-1.07-0.588
					C110.557,44.966,110.113,44.89,109.674,44.89z"/>
			</g>
			<g>
				<path fill="#FFFFFF" d="M115.531,52.454c-0.184-0.188-0.277-0.412-0.277-0.676s0.094-0.488,0.277-0.67
					c0.18-0.182,0.404-0.275,0.668-0.275s0.488,0.094,0.676,0.275s0.281,0.406,0.281,0.67s-0.094,0.488-0.281,0.676
					s-0.412,0.281-0.676,0.281S115.711,52.642,115.531,52.454z"/>
			</g>
			<g>
				<path fill="#FFFFFF" d="M127.08,51.403c-0.902,0.877-2.016,1.32-3.342,1.32c-1.328,0-2.441-0.443-3.342-1.32
					c-0.904-0.883-1.354-1.979-1.354-3.295c0-1.312,0.449-2.406,1.354-3.287c0.9-0.881,2.014-1.318,3.342-1.318
					c1.326,0,2.439,0.438,3.342,1.318c0.9,0.881,1.352,1.975,1.352,3.287C128.432,49.425,127.98,50.521,127.08,51.403z
					 M125.977,45.819c-0.607-0.627-1.355-0.943-2.238-0.943c-0.885,0-1.633,0.316-2.24,0.943c-0.605,0.631-0.912,1.395-0.912,2.289
					c0,0.9,0.307,1.662,0.912,2.291c0.607,0.631,1.355,0.945,2.24,0.945c0.883,0,1.631-0.314,2.238-0.945
					c0.609-0.629,0.908-1.391,0.908-2.291C126.885,47.214,126.586,46.45,125.977,45.819z"/>
			</g>
			<g>
				<path fill="#FFFFFF" d="M138.088,46.61c0,1.473-0.643,2.398-1.928,2.781l2.334,3.242h-1.91l-2.135-2.996h-1.975v2.996h-1.506
					v-8.918h3.316c1.359,0,2.334,0.23,2.92,0.689C137.793,44.864,138.088,45.603,138.088,46.61z M136.084,47.876
					c0.307-0.262,0.461-0.688,0.461-1.271c0-0.58-0.158-0.982-0.473-1.197c-0.316-0.217-0.877-0.326-1.684-0.326h-1.914v3.188h1.875
					C135.199,48.269,135.777,48.14,136.084,47.876z"/>
			</g>
			<g>
				<path fill="#FFFFFF" d="M147.066,48.296h1.506v3.049c-0.842,0.926-2.047,1.391-3.609,1.391c-1.318,0-2.422-0.436-3.312-1.301
					c-0.885-0.869-1.33-1.965-1.33-3.293c0-1.326,0.453-2.43,1.354-3.314c0.908-0.885,2.002-1.324,3.289-1.324
					c1.283,0,2.35,0.373,3.201,1.119l-0.805,1.15c-0.35-0.303-0.697-0.504-1.051-0.621c-0.354-0.115-0.762-0.17-1.232-0.17
					c-0.9,0-1.656,0.291-2.27,0.873c-0.615,0.582-0.918,1.346-0.918,2.295c0,0.947,0.297,1.707,0.893,2.283
					c0.594,0.576,1.316,0.859,2.16,0.859c0.848,0,1.553-0.184,2.125-0.545V48.296z"/>
			</g>
		</g>
	</g>
	<g>
		<g>
			<path fill="#FFFFFF" d="M90.271,37.304H78.377c-0.09,0-0.174-0.037-0.236-0.098l-2.662-2.664l-2.661,2.664
				c-0.066,0.061-0.148,0.098-0.24,0.098H60.685c-0.184,0-0.334-0.148-0.334-0.334V25.077c0-0.092,0.035-0.176,0.1-0.237l2.66-2.663
				l-2.66-2.661c-0.064-0.066-0.1-0.148-0.1-0.239V7.382c0-0.185,0.15-0.335,0.334-0.335h11.893c0.092,0,0.174,0.033,0.24,0.098
				l2.661,2.665l2.662-2.665c0.062-0.064,0.146-0.098,0.236-0.098h11.895c0.184,0,0.334,0.15,0.334,0.335v11.894
				c0,0.091-0.037,0.173-0.098,0.239l-2.662,2.661l2.662,2.663c0.061,0.062,0.098,0.146,0.098,0.237V36.97
				C90.605,37.155,90.455,37.304,90.271,37.304z M78.516,36.636h11.42V25.213l-2.799-2.803c-0.133-0.13-0.133-0.341,0-0.472
				l2.799-2.8V7.717h-11.42l-2.803,2.798c-0.129,0.132-0.342,0.132-0.473,0l-2.802-2.798H61.021v11.422l2.797,2.8
				c0.132,0.131,0.132,0.342,0,0.472l-2.797,2.803v11.422h11.418l2.802-2.801c0.131-0.133,0.344-0.133,0.473,0L78.516,36.636z"/>
		</g>
		<g>
			<g>
				<path fill="#FFFFFF" d="M73.589,36.149c-0.088,0-0.172-0.033-0.238-0.098l-0.946-0.945c-0.129-0.131-0.129-0.344,0-0.473
					c0.132-0.133,0.343-0.133,0.475,0l0.946,0.945c0.13,0.129,0.13,0.342,0,0.473C73.759,36.116,73.673,36.149,73.589,36.149z
					 M74.533,35.349c-0.082,0-0.172-0.033-0.236-0.098c-0.131-0.129-0.131-0.342,0-0.475l0.709-0.705l-0.711-0.709
					c-0.129-0.133-0.129-0.342,0-0.473s0.344-0.131,0.475,0l0.943,0.945c0.064,0.062,0.1,0.148,0.1,0.236s-0.035,0.172-0.1,0.236
					l-0.941,0.943C74.707,35.315,74.621,35.349,74.533,35.349z M71.699,34.259c-0.088,0-0.175-0.035-0.241-0.098l-0.943-0.945
					c-0.129-0.131-0.129-0.342,0-0.475c0.13-0.129,0.342-0.129,0.473,0l0.944,0.947c0.133,0.129,0.133,0.342,0,0.473
					C71.867,34.224,71.783,34.259,71.699,34.259z M73.586,32.513c-0.085,0-0.171-0.033-0.237-0.098l-0.944-0.945
					c-0.131-0.129-0.131-0.343,0-0.472c0.13-0.131,0.341-0.131,0.475,0l0.942,0.945c0.131,0.129,0.131,0.342,0,0.473
					C73.757,32.479,73.671,32.513,73.586,32.513z M69.806,32.368c-0.087,0-0.172-0.033-0.236-0.1l-0.945-0.945
					c-0.133-0.131-0.133-0.342,0-0.473c0.131-0.131,0.341-0.131,0.473,0l0.945,0.946c0.129,0.129,0.129,0.342,0,0.473
					C69.977,32.335,69.89,32.368,69.806,32.368z M71.694,30.623c-0.086,0-0.17-0.032-0.237-0.099l-0.944-0.944
					c-0.132-0.132-0.132-0.343,0-0.473c0.131-0.132,0.342-0.132,0.473,0l0.946,0.945c0.129,0.13,0.129,0.34,0,0.472
					C71.864,30.59,71.78,30.623,71.694,30.623z M67.914,30.476c-0.086,0-0.171-0.034-0.236-0.099l-0.945-0.946
					c-0.132-0.129-0.132-0.342,0-0.472c0.13-0.132,0.341-0.132,0.473,0l0.946,0.945c0.13,0.132,0.13,0.342,0,0.473
					C68.085,30.442,68.001,30.476,67.914,30.476z M69.804,28.73c-0.085,0-0.171-0.031-0.235-0.097l-0.947-0.948
					c-0.13-0.13-0.13-0.34,0-0.474c0.128-0.129,0.343-0.129,0.472,0l0.947,0.948c0.13,0.132,0.13,0.343,0,0.474
					C69.975,28.699,69.889,28.73,69.804,28.73z M66.024,28.583c-0.088,0-0.172-0.031-0.236-0.097l-0.949-0.945
					c-0.129-0.131-0.129-0.343,0-0.472c0.132-0.131,0.344-0.131,0.474,0l0.947,0.945c0.13,0.129,0.13,0.34,0,0.472
					C66.192,28.551,66.106,28.583,66.024,28.583z M67.912,26.838c-0.086,0-0.172-0.032-0.236-0.098l-0.945-0.945
					c-0.13-0.131-0.13-0.342,0-0.475c0.13-0.129,0.343-0.129,0.472,0l0.944,0.949c0.132,0.129,0.132,0.34,0,0.471
					C68.082,26.806,67.996,26.838,67.912,26.838z M64.132,26.694c-0.085,0-0.171-0.033-0.238-0.1l-0.944-0.945
					c-0.132-0.131-0.132-0.344,0-0.474c0.13-0.13,0.342-0.13,0.473,0l0.944,0.945c0.131,0.133,0.131,0.343,0,0.474
					C64.303,26.661,64.216,26.694,64.132,26.694z M66.022,24.948c-0.088,0-0.173-0.033-0.237-0.098l-0.947-0.945
					c-0.129-0.132-0.129-0.343,0-0.473c0.133-0.133,0.343-0.133,0.472,0l0.947,0.944c0.132,0.132,0.132,0.344,0,0.474
					C66.192,24.915,66.105,24.948,66.022,24.948z M62.241,24.801c-0.088,0-0.172-0.032-0.236-0.098l-0.475-0.475
					c-0.132-0.13-0.132-0.342,0-0.471l0.471-0.475c0.132-0.129,0.343-0.129,0.473,0c0.13,0.13,0.13,0.343,0,0.475l-0.235,0.236
					l0.237,0.236c0.131,0.131,0.131,0.342,0,0.473C62.411,24.769,62.325,24.801,62.241,24.801z M64.13,23.057
					c-0.085,0-0.172-0.033-0.239-0.098l-0.308-0.312l-0.165,0.164c-0.13,0.129-0.34,0.129-0.472,0c-0.131-0.13-0.131-0.345,0-0.474
					l0.4-0.399c0.129-0.13,0.342-0.13,0.471,0l0.549,0.548c0.131,0.131,0.131,0.342,0,0.473
					C64.301,23.024,64.214,23.057,64.13,23.057z"/>
			</g>
			<g>
				<path fill="#FFFFFF" d="M63.583,22.509L63.583,22.509c-0.088,0-0.174-0.034-0.236-0.099l-0.941-0.941
					c-0.134-0.132-0.134-0.342,0-0.473c0.13-0.131,0.342-0.131,0.473,0l0.705,0.708l0.709-0.712c0.13-0.129,0.343-0.129,0.472,0
					c0.132,0.13,0.132,0.342,0,0.474l-0.946,0.944C63.755,22.475,63.671,22.509,63.583,22.509z M61.839,20.622
					c-0.086,0-0.171-0.033-0.239-0.098c-0.129-0.131-0.129-0.342,0-0.475l0.946-0.945c0.131-0.131,0.342-0.131,0.474,0
					c0.132,0.129,0.132,0.342,0,0.474l-0.947,0.946C62.007,20.588,61.925,20.622,61.839,20.622z M65.474,20.62
					c-0.086,0-0.171-0.033-0.235-0.098c-0.132-0.132-0.132-0.344,0-0.475l0.945-0.945c0.131-0.131,0.341-0.131,0.473,0
					s0.132,0.342,0,0.475l-0.945,0.945C65.644,20.586,65.56,20.62,65.474,20.62z M63.729,18.73c-0.087,0-0.169-0.033-0.236-0.098
					c-0.133-0.131-0.133-0.342,0-0.474l0.944-0.945c0.132-0.132,0.345-0.132,0.476,0c0.129,0.132,0.129,0.342,0,0.472l-0.947,0.947
					C63.899,18.697,63.815,18.73,63.729,18.73z M67.365,18.728c-0.084,0-0.17-0.032-0.235-0.097c-0.131-0.134-0.131-0.344,0-0.473
					l0.945-0.947c0.129-0.133,0.342-0.133,0.472,0c0.131,0.129,0.131,0.34,0,0.472l-0.943,0.948
					C67.536,18.696,67.452,18.728,67.365,18.728z M65.618,16.837c-0.084,0-0.168-0.032-0.234-0.098c-0.131-0.13-0.131-0.342,0-0.473
					l0.945-0.945c0.131-0.13,0.344-0.13,0.473,0c0.13,0.131,0.13,0.344,0,0.473l-0.944,0.945
					C65.793,16.805,65.706,16.837,65.618,16.837z M69.257,16.835c-0.083,0-0.17-0.032-0.237-0.1c-0.129-0.13-0.129-0.341,0-0.472
					l0.946-0.945c0.13-0.131,0.342-0.131,0.473,0c0.131,0.132,0.131,0.343,0,0.472l-0.944,0.945
					C69.43,16.803,69.343,16.835,69.257,16.835z M67.749,14.85c-0.066,0.065-0.15,0.096-0.239,0.096c-0.083,0-0.17-0.03-0.235-0.096
					c-0.13-0.132-0.13-0.344,0-0.473l0.946-0.947c0.132-0.13,0.342-0.13,0.472,0c0.132,0.131,0.132,0.343,0,0.473 M71.148,14.943
					c-0.086,0-0.172-0.033-0.237-0.098c-0.13-0.13-0.13-0.343,0-0.472l0.947-0.945c0.129-0.13,0.34-0.13,0.473,0
					c0.129,0.13,0.129,0.343,0,0.472l-0.948,0.945C71.318,14.91,71.234,14.943,71.148,14.943z M69.402,13.055
					c-0.086,0-0.171-0.032-0.236-0.097c-0.13-0.134-0.13-0.343,0-0.474l0.946-0.948c0.131-0.129,0.342-0.129,0.471,0
					c0.134,0.134,0.134,0.343,0,0.475l-0.943,0.947C69.572,13.023,69.487,13.055,69.402,13.055z M73.04,13.053
					c-0.087,0-0.171-0.033-0.236-0.098c-0.133-0.133-0.133-0.343,0-0.474l0.945-0.946c0.131-0.129,0.345-0.129,0.474,0
					c0.131,0.131,0.131,0.342,0,0.473l-0.947,0.947C73.211,13.02,73.127,13.053,73.04,13.053z M71.294,11.163
					c-0.084,0-0.17-0.032-0.236-0.097c-0.131-0.132-0.131-0.342,0-0.474l0.947-0.945c0.129-0.129,0.342-0.129,0.473,0
					c0.129,0.131,0.129,0.344,0,0.474l-0.946,0.945C71.465,11.13,71.381,11.163,71.294,11.163z M74.932,11.161
					c-0.086,0-0.17-0.032-0.236-0.097c-0.131-0.132-0.131-0.343,0-0.474l0.311-0.31l-0.164-0.164c-0.131-0.13-0.131-0.341,0-0.475
					c0.131-0.129,0.342-0.129,0.473,0l0.398,0.403c0.133,0.128,0.133,0.342,0,0.47l-0.543,0.549
					C75.102,11.128,75.016,11.161,74.932,11.161z M73.186,9.272c-0.084,0-0.17-0.032-0.237-0.097c-0.129-0.131-0.129-0.342,0-0.476
					l0.476-0.473c0.13-0.13,0.342-0.13,0.472,0l0.472,0.471c0.133,0.132,0.133,0.345,0,0.474c-0.127,0.13-0.34,0.13-0.473,0
					L73.66,8.936l-0.238,0.239C73.356,9.24,73.271,9.272,73.186,9.272z"/>
			</g>
			<g>
				<path fill="#FFFFFF" d="M87.373,22.509c-0.086,0-0.172-0.03-0.236-0.099l-0.545-0.545c-0.133-0.129-0.133-0.342,0-0.471
					c0.129-0.134,0.342-0.134,0.471,0l0.311,0.31l0.162-0.167c0.129-0.13,0.344-0.13,0.473,0c0.131,0.131,0.131,0.343,0,0.475
					l-0.398,0.398C87.543,22.479,87.457,22.509,87.373,22.509z M88.719,21.165c-0.088,0-0.174-0.032-0.238-0.099
					c-0.129-0.132-0.129-0.341,0-0.474l0.236-0.234l-0.236-0.237c-0.131-0.13-0.131-0.343,0-0.472c0.129-0.132,0.342-0.132,0.473,0
					l0.473,0.472c0.131,0.132,0.131,0.343,0,0.474l-0.473,0.472C88.889,21.132,88.803,21.165,88.719,21.165z M85.881,21.018
					c-0.086,0-0.17-0.032-0.234-0.097l-0.947-0.948c-0.133-0.129-0.133-0.34,0-0.471c0.131-0.133,0.342-0.133,0.471,0l0.947,0.945
					c0.129,0.132,0.129,0.342,0,0.474C86.053,20.986,85.967,21.018,85.881,21.018z M87.77,19.272c-0.084,0-0.172-0.032-0.236-0.097
					l-0.945-0.946c-0.131-0.129-0.131-0.342,0-0.472c0.129-0.132,0.342-0.132,0.475,0l0.945,0.944c0.131,0.132,0.131,0.344,0,0.474
					C87.943,19.24,87.855,19.272,87.77,19.272z M83.99,19.127c-0.088,0-0.172-0.034-0.236-0.099l-0.949-0.944
					c-0.129-0.133-0.129-0.345,0-0.476c0.133-0.129,0.344-0.129,0.475,0l0.947,0.947c0.129,0.129,0.129,0.342,0,0.473
					C84.162,19.093,84.078,19.127,83.99,19.127z M85.881,17.381c-0.086,0-0.172-0.031-0.24-0.097l-0.945-0.946
					c-0.129-0.132-0.129-0.342,0-0.475c0.131-0.129,0.344-0.129,0.473,0l0.949,0.946c0.129,0.132,0.129,0.342,0,0.475
					C86.051,17.35,85.965,17.381,85.881,17.381z M82.1,17.235c-0.088,0-0.174-0.033-0.238-0.098l-0.945-0.944
					c-0.131-0.132-0.131-0.343,0-0.475c0.131-0.129,0.342-0.129,0.473,0l0.945,0.945c0.131,0.13,0.131,0.343,0,0.474
					C82.268,17.202,82.184,17.235,82.1,17.235z M83.988,15.491c-0.086,0-0.172-0.033-0.236-0.098l-0.947-0.947
					c-0.129-0.129-0.129-0.342,0-0.473c0.131-0.13,0.342-0.13,0.475,0l0.943,0.946c0.131,0.132,0.131,0.341,0,0.474
					C84.158,15.458,84.072,15.491,83.988,15.491z M80.207,15.344c-0.086,0-0.172-0.032-0.236-0.097l-0.945-0.946
					c-0.133-0.133-0.133-0.342,0-0.473c0.131-0.132,0.342-0.132,0.473,0l0.945,0.944c0.129,0.132,0.129,0.343,0,0.475
					C80.377,15.312,80.291,15.344,80.207,15.344z M82.096,13.599c-0.086,0-0.17-0.033-0.234-0.099l-0.947-0.946
					c-0.133-0.129-0.133-0.343,0-0.472c0.129-0.131,0.34-0.131,0.473,0l0.947,0.945c0.129,0.133,0.129,0.344,0,0.473
					C82.266,13.566,82.182,13.599,82.096,13.599z M78.314,13.453c-0.084,0-0.17-0.032-0.236-0.097l-0.943-0.947
					c-0.135-0.131-0.135-0.343,0-0.475c0.129-0.131,0.34-0.131,0.471,0l0.947,0.947c0.129,0.133,0.129,0.344,0,0.475
					C78.486,13.42,78.402,13.453,78.314,13.453z M80.205,11.707c-0.086,0-0.172-0.032-0.236-0.097l-0.947-0.946
					c-0.131-0.13-0.131-0.342,0-0.471c0.133-0.134,0.344-0.134,0.473,0l0.947,0.945c0.129,0.13,0.129,0.343,0,0.472
					C80.375,11.674,80.289,11.707,80.205,11.707z M76.424,11.561c-0.088,0-0.172-0.031-0.238-0.1l-0.945-0.946
					c-0.061-0.062-0.096-0.146-0.096-0.234c0-0.088,0.035-0.173,0.096-0.235l0.943-0.941c0.133-0.133,0.342-0.133,0.475,0
					c0.131,0.127,0.131,0.34,0,0.472l-0.707,0.705l0.709,0.709c0.129,0.132,0.129,0.342,0,0.472
					C76.594,11.53,76.508,11.561,76.424,11.561z M78.312,9.819c-0.084,0-0.172-0.035-0.236-0.102l-0.945-0.945
					C77,8.642,77,8.431,77.131,8.3c0.131-0.129,0.344-0.129,0.473,0l0.945,0.944c0.131,0.131,0.131,0.344,0,0.473
					C78.484,9.784,78.398,9.819,78.312,9.819z"/>
			</g>
			<g>
				<path fill="#FFFFFF" d="M77.295,36.222c-0.084,0-0.17-0.035-0.234-0.098l-0.475-0.471c-0.129-0.133-0.129-0.344,0-0.475
					c0.131-0.131,0.344-0.131,0.475,0l0.234,0.236l0.236-0.236c0.133-0.131,0.342-0.131,0.475,0c0.131,0.129,0.131,0.34,0,0.471
					l-0.475,0.475C77.467,36.187,77.379,36.222,77.295,36.222z M75.877,34.806c-0.086,0-0.17-0.035-0.234-0.1l-0.402-0.398
					c-0.129-0.131-0.129-0.342,0-0.473l0.547-0.547c0.133-0.131,0.342-0.131,0.477,0c0.129,0.131,0.129,0.344,0,0.473l-0.312,0.311
					l0.164,0.162c0.127,0.129,0.127,0.342,0,0.473C76.049,34.771,75.963,34.806,75.877,34.806z M78.715,34.804
					c-0.086,0-0.172-0.033-0.236-0.098c-0.131-0.133-0.131-0.344,0-0.473l0.945-0.947c0.129-0.131,0.34-0.131,0.473,0
					c0.133,0.133,0.133,0.34,0,0.473l-0.945,0.947C78.887,34.771,78.801,34.804,78.715,34.804z M76.969,32.913
					c-0.084,0-0.17-0.033-0.234-0.098c-0.131-0.131-0.131-0.344,0-0.473l0.943-0.945c0.131-0.131,0.344-0.131,0.475,0
					c0.129,0.129,0.129,0.342,0,0.473l-0.945,0.945C77.141,32.88,77.055,32.913,76.969,32.913z M80.605,32.911
					c-0.084,0-0.17-0.033-0.234-0.098c-0.131-0.133-0.131-0.342,0-0.473l0.945-0.947c0.129-0.129,0.34-0.129,0.473,0
					c0.129,0.133,0.129,0.344,0,0.475l-0.945,0.945C80.779,32.878,80.693,32.911,80.605,32.911z M78.861,31.022
					c-0.084,0-0.172-0.032-0.236-0.099c-0.129-0.132-0.129-0.342,0-0.474l0.945-0.945c0.129-0.131,0.342-0.131,0.473,0
					c0.133,0.132,0.133,0.342,0,0.475l-0.945,0.944C79.033,30.99,78.945,31.022,78.861,31.022z M82.498,31.019
					c-0.084,0-0.172-0.033-0.236-0.098c-0.133-0.13-0.133-0.342,0-0.475l0.943-0.944c0.131-0.129,0.344-0.129,0.475,0
					c0.129,0.132,0.129,0.344,0,0.474l-0.947,0.945C82.668,30.986,82.582,31.019,82.498,31.019z M80.752,29.129
					c-0.084,0-0.17-0.031-0.236-0.096c-0.131-0.133-0.131-0.344,0-0.474l0.947-0.946c0.129-0.13,0.34-0.13,0.471,0
					c0.131,0.129,0.131,0.342,0,0.472l-0.943,0.948C80.924,29.098,80.84,29.129,80.752,29.129z M84.391,29.127
					c-0.088,0-0.174-0.032-0.24-0.097c-0.129-0.131-0.129-0.342,0-0.473l0.947-0.944c0.133-0.133,0.342-0.133,0.475,0
					c0.127,0.129,0.127,0.342,0,0.472l-0.947,0.945C84.561,29.095,84.475,29.127,84.391,29.127z M82.645,27.238
					c-0.084,0-0.172-0.03-0.238-0.099c-0.131-0.13-0.131-0.34,0-0.471l0.947-0.946c0.129-0.132,0.342-0.132,0.473,0
					c0.131,0.13,0.131,0.341,0,0.474l-0.947,0.943C82.814,27.208,82.73,27.238,82.645,27.238z M86.279,27.237
					c-0.086,0-0.172-0.029-0.236-0.099c-0.129-0.129-0.129-0.339,0-0.472l0.947-0.947c0.131-0.13,0.342-0.13,0.475,0
					c0.129,0.131,0.129,0.343,0,0.473l-0.947,0.946C86.451,27.208,86.365,27.237,86.279,27.237z M84.535,25.347
					c-0.088,0-0.172-0.032-0.236-0.098c-0.131-0.13-0.131-0.342,0-0.47l0.945-0.949c0.131-0.132,0.344-0.132,0.473,0
					c0.131,0.132,0.131,0.343,0,0.473l-0.943,0.946C84.705,25.315,84.621,25.347,84.535,25.347z M88.17,25.344
					c-0.084,0-0.17-0.031-0.234-0.098c-0.129-0.131-0.129-0.34,0-0.472l0.945-0.946c0.131-0.13,0.342-0.13,0.473,0
					c0.131,0.129,0.131,0.342,0,0.473l-0.945,0.945C88.344,25.313,88.258,25.344,88.17,25.344z M86.428,23.456
					c-0.086,0-0.174-0.033-0.238-0.1c-0.129-0.129-0.129-0.342,0-0.473l0.947-0.944c0.131-0.13,0.342-0.13,0.473,0l0.943,0.944
					c0.129,0.131,0.129,0.344,0,0.473c-0.131,0.13-0.342,0.13-0.473,0l-0.707-0.708l-0.711,0.708
					C86.598,23.422,86.512,23.456,86.428,23.456z"/>
			</g>
		</g>
	</g>
</g>
</svg>
